<?xml version="1.0" encoding="UTF-8"?>
<!DOCTYPE svg PUBLIC "-//W3C//DTD SVG 1.1//EN" "http://www.w3.org/Graphics/SVG/1.1/DTD/svg11.dtd">
<!-- Creator: CorelDRAW X8 -->
<svg xmlns="http://www.w3.org/2000/svg" xml:space="preserve" width="50mm" height="50mm" version="1.1" style="shape-rendering:geometricPrecision; text-rendering:geometricPrecision; image-rendering:optimizeQuality; fill-rule:evenodd; clip-rule:evenodd"
viewBox="0 0 5000 5000"
 xmlns:xlink="http://www.w3.org/1999/xlink">
 <defs>
  <style type="text/css">
   <![CDATA[
    .fil0 {fill:#070716}
   ]]>
  </style>
 </defs>
 <g id="Слой_x0020_1">
  <metadata id="CorelCorpID_0Corel-Layer"/>
  <path class="fil0" d="M2576 1984l0 151c447,0 378,-59 378,246 0,92 -138,57 -378,57l0 1323c0,85 -89,57 -284,57 -44,0 -57,-13 -57,-57l0 -1323 -265 0c0,-362 -56,-303 265,-303 0,-237 -13,-429 129,-608 195,-246 436,-185 647,-167 104,446 -113,283 -190,283 -182,0 -245,83 -245,341zm-2572 378c0,490 29,798 245,1229 69,137 143,258 228,378 47,67 81,104 136,166 56,62 78,100 142,161 471,450 1045,676 1731,703 329,13 761,-92 997,-197 251,-112 363,-184 568,-340l175 -147c107,-102 193,-206 281,-324 257,-342 489,-870 489,-1345 0,-501 -16,-791 -251,-1261 -145,-290 -300,-472 -519,-692 -930,-931 -2535,-920 -3461,10 -433,434 -761,1020 -761,1659z"/>
 </g>
</svg>
