<?xml version="1.0" encoding="UTF-8"?>
<!DOCTYPE svg PUBLIC "-//W3C//DTD SVG 1.1//EN" "http://www.w3.org/Graphics/SVG/1.1/DTD/svg11.dtd">
<!-- Creator: CorelDRAW X8 -->
<svg xmlns="http://www.w3.org/2000/svg" xml:space="preserve" width="50mm" height="50mm" version="1.1" style="shape-rendering:geometricPrecision; text-rendering:geometricPrecision; image-rendering:optimizeQuality; fill-rule:evenodd; clip-rule:evenodd"
viewBox="0 0 5000 5000"
 xmlns:xlink="http://www.w3.org/1999/xlink">
 <defs>
  <style type="text/css">
   <![CDATA[
    .fil0 {fill:#070716}
   ]]>
  </style>
 </defs>
 <g id="Слой_x0020_1">
  <metadata id="CorelCorpID_0Corel-Layer"/>
  <path class="fil0" d="M1951 2528c0,-761 1098,-756 1098,0 0,698 -1098,704 -1098,0zm1193 -852c86,-20 208,-46 208,95 0,199 -328,155 -208,-95zm-1818 284l0 1118c0,321 219,587 473,587l1402 0c278,0 473,-284 473,-625l0 -1061c0,-201 -43,-354 -146,-460 -99,-103 -230,-184 -422,-184l-1212 0c-186,0 -316,77 -413,175 -106,108 -155,241 -155,450z"/>
  <path class="fil0" d="M2066 2502c0,385 479,573 743,308 267,-267 82,-743 -308,-743 -239,0 -435,196 -435,435z"/>
  <path class="fil0" d="M3097 3807l-1213 0c-371,0 -681,-284 -681,-644l0 -1269c0,-365 289,-663 644,-663l1287 0c345,0 644,300 644,644l0 1250c0,393 -288,682 -681,682zm-3106 -1307c0,300 94,740 214,998 117,251 179,359 343,566 29,37 43,48 70,81 376,466 1115,855 1759,855 563,0 929,-59 1400,-342 287,-172 595,-441 778,-719 333,-505 454,-890 454,-1515 0,-1274 -1150,-2424 -2424,-2424 -593,0 -885,92 -1357,347 -735,398 -1237,1310 -1237,2153z"/>
 </g>
</svg>
