<?xml version="1.0" encoding="UTF-8"?>
<!DOCTYPE svg PUBLIC "-//W3C//DTD SVG 1.1//EN" "http://www.w3.org/Graphics/SVG/1.1/DTD/svg11.dtd">
<!-- Creator: CorelDRAW X8 -->
<svg xmlns="http://www.w3.org/2000/svg" xml:space="preserve" width="50mm" height="50mm" version="1.1" style="shape-rendering:geometricPrecision; text-rendering:geometricPrecision; image-rendering:optimizeQuality; fill-rule:evenodd; clip-rule:evenodd"
viewBox="0 0 5000 5000"
 xmlns:xlink="http://www.w3.org/1999/xlink">
 <defs>
  <style type="text/css">
   <![CDATA[
    .fil0 {fill:#070716}
   ]]>
  </style>
 </defs>
 <g id="Слой_x0020_1">
  <metadata id="CorelCorpID_0Corel-Layer"/>
  <path class="fil0" d="M1879 3436c-145,34 -280,19 -454,19 -44,0 -75,-31 -75,-76l0 -1436c0,-99 200,-57 472,-57 58,0 76,55 76,113 0,387 26,1089 -19,1437zm3119 -1078l0 295c-31,532 -234,1068 -638,1525 -46,52 -108,113 -160,161 -452,418 -929,588 -1524,650 -391,41 -780,-43 -1078,-156 -220,-84 -420,-201 -605,-341 -54,-40 -119,-88 -168,-134 -245,-227 -461,-512 -599,-819 -278,-617 -299,-1344 -57,-1945 63,-156 122,-283 209,-415l267 -357c208,-216 431,-400 704,-543 243,-128 561,-224 837,-261 242,-32 485,-19 732,16 165,23 348,80 490,134 950,363 1535,1247 1590,2190zm-2363 1078c-145,34 -279,19 -453,19 -45,0 -76,-31 -76,-76l0 -1436c0,-98 187,-57 454,-57 62,0 70,54 75,113 197,-131 155,-151 473,-151 447,0 529,404 529,794l0 700c0,160 -110,113 -472,113 -107,0 -76,-161 -76,-265 0,-130 10,-575 -10,-670 -60,-283 -313,-208 -388,-87 -44,71 -42,208 -53,306 -21,189 -3,496 -3,697zm-983 -1682c-498,0 -402,-646 -22,-620 256,18 402,322 226,521 -34,37 -139,99 -204,99z"/>
 </g>
</svg>
