<?xml version="1.0" encoding="UTF-8"?>
<!DOCTYPE svg PUBLIC "-//W3C//DTD SVG 1.1//EN" "http://www.w3.org/Graphics/SVG/1.1/DTD/svg11.dtd">
<!-- Creator: CorelDRAW X8 -->
<svg xmlns="http://www.w3.org/2000/svg" xml:space="preserve" width="50mm" height="50mm" version="1.1" style="shape-rendering:geometricPrecision; text-rendering:geometricPrecision; image-rendering:optimizeQuality; fill-rule:evenodd; clip-rule:evenodd"
viewBox="0 0 5000 5000"
 xmlns:xlink="http://www.w3.org/1999/xlink">
 <defs>
  <style type="text/css">
   <![CDATA[
    .fil0 {fill:#070716}
   ]]>
  </style>
 </defs>
 <g id="Слой_x0020_1">
  <metadata id="CorelCorpID_0Corel-Layer"/>
  <path class="fil0" d="M3745 1777c273,-131 160,88 11,199 -106,79 -86,108 -107,348 -21,236 -137,479 -255,633 -253,333 -696,634 -1142,634 -330,0 -466,3 -775,-170 -107,-60 -108,-65 -114,-132 110,-25 245,-12 346,-32 181,-36 209,-80 297,-100 -51,-70 -103,-32 -232,-146 -28,-25 -247,-247 -89,-289 -55,-82 -246,-181 -246,-454 0,-34 55,-48 83,-53 110,-20 -47,33 30,-3 -213,-318 -70,-465 -37,-605 176,0 110,92 457,318 73,47 169,89 258,119 57,19 257,68 324,73 0,-275 82,-458 305,-564 369,-176 611,92 640,92 161,0 322,-211 322,-38 0,108 -52,82 -76,170zm-3743 586c0,668 101,1079 473,1606 124,176 278,329 440,467 440,377 987,539 1569,562 582,23 1130,-205 1564,-537 286,-218 524,-520 686,-844 386,-769 343,-1676 -97,-2411 -44,-73 -74,-113 -121,-182 -374,-550 -1150,-1024 -2000,-1024 -681,0 -1308,259 -1753,704 -431,431 -761,1018 -761,1659z"/>
 </g>
</svg>
